<?xml version="1.0" encoding="UTF-8" standalone="no"?>
<!-- Created with Inkscape (http://www.inkscape.org/) -->

<svg
   width="13.229166mm"
   height="13.229167mm"
   viewBox="0 0 13.229166 13.229167"
   version="1.1"
   id="svg1"
   xml:space="preserve"
   xmlns="http://www.w3.org/2000/svg"
   xmlns:svg="http://www.w3.org/2000/svg"><defs
     id="defs1" /><g
     id="layer1"
     transform="translate(-51.895742,-96.226552)"><rect
       style="fill:none;fill-rule:evenodd;stroke-width:0.500001;stroke-miterlimit:12.4;paint-order:stroke fill markers"
       id="rect2-1"
       width="13.229167"
       height="13.229167"
       x="51.895741"
       y="96.226555" /><path
       style="fill:#ffffff;stroke-width:1"
       d="m 54.560733,108.04283 c -0.0417,-0.0243 -0.07186,-0.0907 -0.07186,-0.15827 0,-0.10638 0.04592,-0.14236 0.535309,-0.41882 0.29442,-0.16633 0.657453,-0.39209 0.80674,-0.5017 l 0.271428,-0.19928 -0.253161,-0.22551 c -0.643458,-0.57318 -1.001566,-1.36942 -1.00275,-2.22958 -9.3e-4,-0.72322 0.131336,-0.92764 0.471313,-0.72807 0.481811,0.28283 0.85459,0.69085 1.128984,1.23573 0.175178,0.34786 0.300425,0.82366 0.300425,1.14131 0,0.13188 0.01695,0.23979 0.03769,0.23979 0.05193,0 0.948303,-0.95283 0.945457,-1.00499 -0.0012,-0.0232 -0.134525,-0.13443 -0.296139,-0.24734 -0.74553,-0.52088 -1.22078,-1.4415 -1.22078,-2.36484 0,-0.46497 0.03875,-0.57093 0.208801,-0.57093 0.313345,0 1.021755,0.54201 1.36359,1.0433 0.203355,0.29821 0.427687,0.83061 0.464754,1.10299 0.01466,0.10782 0.04117,0.20492 0.05889,0.21587 0.06948,0.043 0.845,-1.41453 0.806317,-1.51534 -0.0099,-0.0256 -0.08945,-0.0717 -0.176972,-0.1026 -0.585864,-0.20669 -1.215916,-0.80591 -1.552957,-1.47699 -0.226199,-0.45038 -0.342358,-1.16727 -0.207294,-1.279361 0.127612,-0.105933 0.662591,0.05707 1.086175,0.330801 0.484834,0.31336 0.900988,0.78274 1.127556,1.27176 0.09696,0.20926 0.103817,0.21514 0.140011,0.11976 0.02093,-0.0552 0.05942,-0.20323 0.0855,-0.32907 0.0468,-0.22569 0.04545,-0.23211 -0.09912,-0.47219 -0.540606,-0.89776 -0.508661,-2.196476 0.07546,-3.067855 0.146136,-0.217994 0.188842,-0.255026 0.294136,-0.255026 0.10529,0 0.148001,0.03701 0.294135,0.255026 0.592785,0.884299 0.616597,2.170605 0.05734,3.097865 -0.13848,0.2296 -0.278265,0.60938 -0.224294,0.60938 0.0086,0 0.103739,-0.0676 0.211198,-0.15029 0.25518,-0.19628 0.792116,-0.44754 1.123132,-0.52557 0.144646,-0.0341 0.429792,-0.0623 0.633658,-0.0626 0.584974,-9.3e-4 0.661027,0.10383 0.42001,0.57872 -0.198407,0.39094 -0.775348,0.95444 -1.203597,1.17557 -0.444044,0.22927 -0.878133,0.34413 -1.312758,0.34734 -0.191311,0.001 -0.34784,0.0184 -0.34784,0.0377 0,0.0193 -0.101202,0.24968 -0.224882,0.5119 -0.16346,0.34654 -0.205515,0.46865 -0.153975,0.44707 0.42487,-0.17794 0.674565,-0.23464 1.117932,-0.25385 0.476583,-0.0206 0.964755,0.05 1.095505,0.15845 0.10652,0.0884 0.05891,0.25893 -0.141859,0.50814 -0.361305,0.44849 -0.867014,0.78441 -1.462912,0.97179 -0.329527,0.10361 -1.010035,0.14207 -1.345669,0.076 l -0.258084,-0.0507 -0.135811,0.15791 c -0.0747,0.0869 -0.18842,0.22257 -0.252721,0.30161 l -0.116913,0.14371 h 0.559892 c 0.506311,0 0.594494,0.0113 0.921453,0.11851 0.198859,0.0652 0.471395,0.18949 0.605633,0.27626 0.208443,0.13472 0.24407,0.17566 0.24407,0.28049 0,0.20733 -0.47119,0.51896 -1.068052,0.70636 -0.263095,0.0826 -0.390383,0.0963 -0.882288,0.0949 -0.51866,-10e-4 -0.606497,-0.0127 -0.898804,-0.11455 -0.178182,-0.0621 -0.402926,-0.15917 -0.499432,-0.21573 -0.0977,-0.0573 -0.186107,-0.0857 -0.199479,-0.0639 -0.08326,0.13471 -1.616307,1.07482 -1.74838,1.07215 -0.03403,-6.2e-4 -0.0942,-0.0201 -0.13372,-0.0431 z m 4.11262,-1.08648 c 0.144798,-0.0341 0.383773,-0.11958 0.531058,-0.18986 l 0.267792,-0.12781 -0.196857,-0.10006 c -0.408605,-0.20765 -1.05711,-0.27064 -1.60074,-0.15547 -0.262029,0.0555 -0.80426,0.27497 -0.80426,0.32552 0,0.0444 0.336655,0.19163 0.564985,0.24697 0.316124,0.0766 0.914488,0.077 1.238022,6.2e-4 z m -2.397989,-1.42751 c -0.128641,-0.5052 -0.49414,-1.11035 -0.821393,-1.35995 -0.207898,-0.15857 -0.241906,-0.11347 -0.209294,0.27757 0.0546,0.65469 0.331328,1.24497 0.801933,1.71058 l 0.269428,0.26657 0.01205,-0.32026 c 0.0073,-0.19592 -0.0131,-0.41895 -0.05271,-0.57451 z m 3.244974,-0.58315 c 0.134596,-0.0341 0.392536,-0.13456 0.573198,-0.22325 0.364893,-0.17912 0.831524,-0.56257 0.765255,-0.62884 -0.02453,-0.0245 -0.232877,-0.0328 -0.526118,-0.0208 -0.539085,0.022 -0.848504,0.11092 -1.265516,0.36365 -0.288719,0.17498 -0.611828,0.47052 -0.576649,0.52744 0.04077,0.0659 0.746929,0.0535 1.02983,-0.0182 z m -1.664911,-0.69744 c -0.120975,-0.61976 -0.543009,-1.26966 -1.056935,-1.62761 l -0.174505,-0.12154 v 0.21161 c 0,0.64505 0.434036,1.45619 1.004302,1.87688 l 0.24802,0.18297 0.01363,-0.13789 c 0.0075,-0.0758 -0.0081,-0.24884 -0.03451,-0.38442 z m 2.525527,-1.79282 c 0.345558,-0.0723 0.854567,-0.34124 1.133716,-0.59917 0.255927,-0.23646 0.488145,-0.52053 0.488145,-0.59712 0,-0.0645 -0.522079,-0.003 -0.808192,0.095 -0.282619,0.0969 -0.669851,0.32263 -0.886625,0.51688 -0.176464,0.15812 -0.52241,0.57937 -0.52241,0.63613 0,0.0445 0.230787,0.0245 0.595366,-0.0517 z m -1.189903,-0.18823 c -0.08016,-0.42727 -0.419314,-0.99481 -0.794365,-1.32928 -0.21272,-0.1897 -0.576497,-0.41923 -0.741935,-0.46813 -0.09592,-0.0284 -0.09767,-0.0246 -0.06975,0.1501 0.0642,0.40187 0.47078,1.04813 0.860101,1.36715 0.178743,0.14647 0.664658,0.43098 0.739426,0.43295 0.01945,4.7e-4 0.02238,-0.0683 0.0065,-0.15279 z m 0.801531,-1.69729 c 0.315628,-0.618683 0.315628,-1.632966 0,-2.251645 -0.04702,-0.09219 -0.09536,-0.167565 -0.10744,-0.167565 -0.04139,0 -0.225896,0.461131 -0.285304,0.713043 -0.07486,0.317468 -0.07589,0.789114 -0.0024,1.134656 0.05454,0.256691 0.242372,0.739071 0.287776,0.739071 0.01208,0 0.06042,-0.0754 0.10744,-0.16756 z"
       id="path2-9" /></g></svg>
