<?xml version="1.0" encoding="UTF-8" standalone="no"?>
<!-- Created with Inkscape (http://www.inkscape.org/) -->

<svg
   width="13.229168mm"
   height="13.229167mm"
   viewBox="0 0 13.229168 13.229167"
   version="1.1"
   id="svg1"
   xml:space="preserve"
   xmlns="http://www.w3.org/2000/svg"
   xmlns:svg="http://www.w3.org/2000/svg"><defs
     id="defs1" /><g
     id="layer1"
     transform="translate(-33.281361,-96.226552)"><g
       id="g2"><rect
         style="fill:none;fill-rule:evenodd;stroke-width:0.500001;stroke-miterlimit:12.4;paint-order:stroke fill markers"
         id="rect2"
         width="13.229167"
         height="13.229167"
         x="33.281361"
         y="96.226555" /><path
         style="fill:#ffffff;stroke-width:1"
         d="m 36.10725,107.95555 c -0.483159,-0.0782 -1.01837,-0.49215 -1.281572,-0.99096 -0.242852,-0.46024 -0.329356,-0.82534 -0.330463,-1.39477 -0.0011,-0.5941 0.05133,-0.84233 0.279453,-1.32166 0.57018,-1.19806 1.841942,-1.49452 2.698578,-0.62907 0.225993,0.22833 0.42403,0.51072 0.424441,0.60522 3.04e-4,0.0691 -0.119964,0.18273 -0.193306,0.18273 -0.03335,0 -0.148495,-0.12213 -0.25588,-0.27141 -0.294001,-0.40869 -0.695503,-0.65881 -1.057518,-0.65881 h -0.14324 l 0.06374,0.15255 c 0.03505,0.0839 0.13248,0.2462 0.216493,0.36066 0.367594,0.50076 0.356838,1.17389 -0.02638,1.65075 -0.348826,0.43407 -0.341988,0.8495 0.02215,1.34554 0.243637,0.3319 0.359327,0.81101 0.221956,0.91917 -0.07886,0.062 -0.405916,0.0877 -0.638449,0.05 z m 0.290833,-0.45094 c -0.016,-0.0638 -0.097,-0.21045 -0.180015,-0.32598 -0.236702,-0.32947 -0.315607,-0.54532 -0.315479,-0.86302 1.3e-4,-0.32318 0.08725,-0.59765 0.256869,-0.80922 0.370882,-0.46263 0.386815,-0.92417 0.04672,-1.35356 -0.07057,-0.0892 -0.171234,-0.25927 -0.223697,-0.37814 l -0.09538,-0.21614 -0.202938,0.13443 c -0.35026,0.232 -0.62581,0.66432 -0.76567,1.20127 -0.08534,0.32761 -0.0843,1.01114 0.0021,1.34599 0.201171,0.78024 0.785885,1.37087 1.364641,1.37843 0.133962,0.002 0.140356,-0.005 0.112905,-0.11406 z m 1.573033,0.44895 c -0.423176,-0.0635 -0.830676,-0.3766 -1.005982,-0.77291 -0.274843,-0.62134 -0.01695,-1.5698 0.590778,-2.17275 0.649797,-0.64472 1.423889,-0.89913 2.105692,-0.69202 0.902059,0.27399 1.200143,1.27669 0.683682,2.2998 -0.154409,0.30588 -0.595995,0.78499 -0.911343,0.98875 -0.416476,0.26914 -1.0262,0.41465 -1.462827,0.34913 z m 0.779551,-0.41999 c 0.739927,-0.24927 1.353211,-0.94885 1.46796,-1.67454 0.02265,-0.14325 0.03415,-0.29547 0.02555,-0.33826 -0.0086,-0.0428 -0.0264,-0.12914 -0.03958,-0.1919 l -0.02395,-0.1141 -0.179445,0.0814 c -0.09869,0.0448 -0.236525,0.0834 -0.306293,0.0856 -0.418312,0.0137 -0.696601,0.28776 -0.798695,0.78666 -0.07829,0.38258 -0.142239,0.50474 -0.377958,0.72202 -0.180493,0.16637 -0.503192,0.3043 -0.723173,0.3091 -0.0481,9.3e-4 -0.143479,0.0259 -0.211943,0.055 l -0.124481,0.0531 0.145623,0.10876 c 0.08009,0.0597 0.202704,0.12868 0.272471,0.15307 0.210616,0.0736 0.595678,0.0577 0.873904,-0.0359 z m -1.085318,-0.66269 c 0.139533,-0.0331 0.296158,-0.0686 0.348057,-0.0787 0.119419,-0.0233 0.378847,-0.24928 0.451984,-0.39352 0.03068,-0.0605 0.06934,-0.20513 0.08591,-0.32142 0.04201,-0.29484 0.153897,-0.52949 0.337495,-0.70779 0.196459,-0.19079 0.378813,-0.27812 0.698354,-0.3344 0.137916,-0.0243 0.283829,-0.0684 0.324253,-0.0979 0.06677,-0.0487 0.05828,-0.0638 -0.09263,-0.163 -0.364896,-0.24 -0.860168,-0.22786 -1.392323,0.0342 -0.549117,0.27034 -0.95032,0.72797 -1.120101,1.27766 -0.129773,0.42016 -0.107926,0.93863 0.03688,0.87519 0.03764,-0.0164 0.182601,-0.057 0.322135,-0.0902 z m 2.79368,0.51407 c -0.03654,-0.0365 -0.06645,-0.0923 -0.06645,-0.12382 0,-0.0316 0.02989,-0.0873 0.06645,-0.12383 0.05727,-0.0573 0.231178,-0.0665 1.258367,-0.0665 h 1.191922 l 0.363749,-0.29274 c 0.389165,-0.31318 0.44205,-0.38588 0.37365,-0.51369 -0.0416,-0.0777 -0.10297,-0.0816 -1.326578,-0.0816 -1.389753,0 -1.417713,-0.005 -1.36192,-0.22695 0.02929,-0.1167 0.129067,-0.1522 0.43012,-0.15302 l 0.213526,-6.3e-4 0.0531,-0.25713 c 0.144981,-0.70192 0.480366,-1.49607 0.872414,-2.06575 0.362065,-0.52611 0.495161,-0.8524 0.591803,-1.45085 l 0.02561,-0.15857 -2.23233,-6.3e-4 c -1.227781,-3.2e-4 -2.275349,-0.0121 -2.327929,-0.0262 -0.113257,-0.0304 -0.168612,-0.20125 -0.09421,-0.2909 0.04502,-0.0542 0.368159,-0.0628 2.351414,-0.0628 h 2.299232 v -0.27761 c 0,-0.4924 0.377954,-0.4412 -3.255772,-0.4412 -3.633725,0 -3.25577,-0.0511 -3.25577,0.4412 v 0.27761 h 0.483231 c 0.382925,0 0.497024,0.0138 0.549676,0.0665 0.03654,0.0365 0.06644,0.0898 0.06644,0.11839 0,0.12496 -0.107042,0.15343 -0.57678,0.15343 -0.278852,0 -0.486365,0.0179 -0.502073,0.0433 -0.01472,0.0238 0.0056,0.20628 0.04508,0.40544 0.06471,0.32614 0.06539,0.36862 0.0067,0.42728 -0.04226,0.0423 -0.102347,0.0558 -0.171028,0.0386 -0.162885,-0.041 -0.239533,-0.44852 -0.239533,-1.2739 0,-0.72128 0.02734,-0.83212 0.240964,-0.97691 0.113773,-0.0771 0.245863,-0.0803 3.353068,-0.0803 3.107205,0 3.239294,0.004 3.353067,0.0803 0.215784,0.14625 0.240965,0.25253 0.240965,1.01698 v 0.69977 h 0.625283 c 0.564403,0 0.643632,0.009 0.813768,0.0952 0.21434,0.1082 0.377303,0.35308 0.378411,0.56863 0.0011,0.23011 -0.203268,0.79534 -0.387447,1.07115 -0.210362,0.31502 -0.587365,0.60685 -0.902207,0.69838 -0.122767,0.0357 -0.401153,0.0802 -0.618636,0.0989 -0.253052,0.0217 -0.474796,0.0685 -0.615875,0.12965 -0.259224,0.11239 -0.550514,0.40649 -0.705348,0.71205 l -0.108402,0.21392 0.855362,0.0137 c 0.804755,0.0128 0.863164,0.0193 0.987198,0.10775 0.07251,0.0517 0.155833,0.15197 0.185162,0.22278 0.06731,0.16252 0.03173,0.44492 -0.07029,0.55783 -0.138144,0.15291 -0.801231,0.66457 -0.919518,0.70954 -0.06912,0.0263 -0.584587,0.0437 -1.293071,0.0437 -1.014663,0 -1.187364,-0.009 -1.244588,-0.0665 z M 42.473463,104.62 c 0.246333,-0.14534 0.500411,-0.21304 0.944136,-0.25157 0.268853,-0.0233 0.504956,-0.0697 0.625105,-0.12292 0.428446,-0.18952 0.830312,-0.78345 0.866248,-1.28023 0.02597,-0.35903 -0.01378,-0.3764 -0.861626,-0.3764 h -0.681564 l -0.05369,0.1797 c -0.07463,0.24982 -0.18336,0.45417 -0.489294,0.91965 -0.331519,0.50441 -0.588825,1.01479 -0.511598,1.01479 0.01187,0 0.08489,-0.0373 0.162279,-0.083 z m -3.960939,-4.625164 c -0.120729,-0.08824 -0.06144,-0.343603 0.12385,-0.533356 0.192448,-0.197082 0.1933,-0.322985 0.0034,-0.507013 -0.248779,-0.241133 -0.25078,-0.56575 -0.0052,-0.839502 0.077,-0.08586 0.153316,-0.198873 0.169605,-0.251215 0.04381,-0.140827 0.160765,-0.189075 0.271047,-0.111827 0.0501,0.03505 0.09111,0.101733 0.09111,0.148075 0,0.120641 -0.119721,0.33546 -0.259976,0.466478 -0.06631,0.06192 -0.120568,0.132379 -0.120568,0.156513 0,0.02416 0.07442,0.129884 0.165386,0.234986 0.278299,0.321545 0.278583,0.569992 0.001,0.88533 -0.09152,0.104001 -0.166396,0.215603 -0.166396,0.248085 0,0.07066 -0.08301,0.16053 -0.148365,0.16053 -0.02579,0 -0.08202,-0.0256 -0.124953,-0.05705 z m 1.085146,0.0068 c -0.119258,-0.119268 -0.0313,-0.427244 0.177798,-0.622591 0.06035,-0.05637 0.109719,-0.133921 0.109719,-0.172334 0,-0.03844 -0.04937,-0.115946 -0.109719,-0.172324 -0.160527,-0.149969 -0.228538,-0.305961 -0.228538,-0.524184 0,-0.165201 0.0237,-0.219312 0.162945,-0.372071 0.08962,-0.09833 0.175033,-0.228804 0.189809,-0.289981 0.02951,-0.122171 0.146082,-0.174285 0.25434,-0.113699 0.04622,0.02586 0.06943,0.09504 0.06943,0.206825 0,0.13721 -0.03099,0.201596 -0.169131,0.351464 -0.196001,0.212631 -0.207679,0.287315 -0.06694,0.428063 0.186713,0.186705 0.236065,0.28972 0.236065,0.492745 0,0.171916 -0.02334,0.2264 -0.169131,0.394857 -0.09302,0.107518 -0.169131,0.221429 -0.169131,0.253242 0,0.0719 -0.115121,0.190728 -0.184836,0.190728 -0.02857,0 -0.07479,-0.0228 -0.102686,-0.0507 z m 1.074885,-0.01361 c -0.121192,-0.121184 -0.06287,-0.324357 0.165767,-0.577429 0.08043,-0.08903 0.146221,-0.179661 0.146221,-0.201437 0,-0.02178 -0.07442,-0.125585 -0.165386,-0.230676 -0.278694,-0.322009 -0.278948,-0.582491 -8.47e-4,-0.869057 0.09143,-0.09425 0.166237,-0.208378 0.166237,-0.253711 0,-0.168127 0.267495,-0.200688 0.31887,-0.03879 0.04294,0.13527 -0.0198,0.313911 -0.173152,0.493073 -0.174355,0.203695 -0.182183,0.29826 -0.036,0.434835 0.295334,0.275906 0.306214,0.593753 0.03045,0.889798 -0.05675,0.0609 -0.135291,0.175034 -0.174535,0.253574 -0.0818,0.163704 -0.178871,0.198614 -0.277633,0.09981 z"
         id="path1-4" /></g></g></svg>
